<?xml version="1.0" encoding="utf-8"?>
<!-- Generator: Adobe Illustrator 23.0.1, SVG Export Plug-In . SVG Version: 6.00 Build 0)  -->
<svg version="1.1" id="Layer_1" xmlns="http://www.w3.org/2000/svg" xmlns:xlink="http://www.w3.org/1999/xlink" x="0px" y="0px"
	 viewBox="0 0 50 50" style="enable-background:new 0 0 50 50;" xml:space="preserve">
<style type="text/css">
	.st0{fill:#9B9B9B;}
</style>
<path class="st0" d="M11.1,12.9H4.3c-0.7,0-1.3-0.6-1.3-1.3V4.8c0-0.7,0.6-1.3,1.3-1.3h6.8c0.7,0,1.3,0.6,1.3,1.3v6.8
	C12.4,12.3,11.8,12.9,11.1,12.9z"/>
<path class="st0" d="M11.1,26.9H4.3c-0.7,0-1.3-0.6-1.3-1.3v-6.8c0-0.7,0.6-1.3,1.3-1.3h6.8c0.7,0,1.3,0.6,1.3,1.3v6.8
	C12.4,26.4,11.8,26.9,11.1,26.9z"/>
<path class="st0" d="M11.1,40.4H4.3c-0.7,0-1.3-0.6-1.3-1.3v-6.8c0-0.7,0.6-1.3,1.3-1.3h6.8c0.7,0,1.3,0.6,1.3,1.3v6.8
	C12.4,39.8,11.8,40.4,11.1,40.4z"/>
</svg>
