<?xml version="1.0" encoding="utf-8"?>
<!-- Generator: Adobe Illustrator 23.0.1, SVG Export Plug-In . SVG Version: 6.00 Build 0)  -->
<svg version="1.1" id="Layer_1" xmlns="http://www.w3.org/2000/svg" xmlns:xlink="http://www.w3.org/1999/xlink" x="0px" y="0px"
	 viewBox="0 0 50 50" style="enable-background:new 0 0 50 50;" xml:space="preserve">
<g>
	<polygon points="25.3,39.5 10.6,47.3 13.4,30.9 1.5,19.3 17.9,16.9 25.3,1.9 32.7,16.9 49.1,19.3 37.2,30.9 40,47.3 	"/>
	<path d="M25.3,2.9l6.9,14l0.2,0.4l0.4,0.1l15.4,2.2L37.1,30.4l-0.3,0.3l0.1,0.4l2.6,15.3l-13.8-7.2L25.3,39l-0.4,0.2l-13.8,7.2
		l2.6-15.3l0.1-0.4l-0.3-0.3L2.4,19.6l15.4-2.2l0.4-0.1l0.2-0.4L25.3,2.9 M25.3,1l-7.6,15.5L0.6,19l12.3,12L10,48l15.3-8l15.3,8
		l-2.9-17L50,19l-17.1-2.5L25.3,1L25.3,1z"/>
</g>
</svg>
